<?xml version="1.0" encoding="iso-8859-1"?>
<!-- Generator: Adobe Illustrator 19.0.0, SVG Export Plug-In . SVG Version: 6.00 Build 0)  -->
<svg version="1.1" id="Layer_1" xmlns="http://www.w3.org/2000/svg" xmlns:xlink="http://www.w3.org/1999/xlink" x="0px" y="0px"
	 viewBox="0 0 512 512" fill="white">
<g>
	<g>
		<path d="M505.639,323.252c-2.216-6.911-8.642-11.6-15.9-11.6h-50.087V16.696c0-9.22-7.475-16.696-16.696-16.696H89.044
			c-9.22,0-16.696,7.475-16.696,16.696v294.956H22.261c-7.258,0-13.684,4.689-15.9,11.6c-2.215,6.911,0.289,14.463,6.195,18.681
			L246.296,508.89c2.903,2.074,6.304,3.11,9.705,3.11c3.4,0,6.802-1.036,9.705-3.11l233.739-166.956
			C505.35,337.715,507.853,330.164,505.639,323.252z M256,474.786L74.359,345.043h14.684c9.22,0,16.696-7.475,16.696-16.696V33.391
			h300.522v294.957c0,9.22,7.475,16.696,16.696,16.696h14.684L256,474.786z"/>
	</g>
</g>
<g>
	<g>
		<path d="M189.218,55.652c-27.618,0-50.087,22.469-50.087,50.087c0,27.618,22.469,50.087,50.087,50.087
			c27.618,0,50.087-22.469,50.087-50.087C239.305,78.121,216.836,55.652,189.218,55.652z M189.218,122.435
			c-9.206,0-16.696-7.49-16.696-16.696s7.49-16.696,16.696-16.696s16.696,7.49,16.696,16.696S198.424,122.435,189.218,122.435z"/>
	</g>
</g>
<g>
	<g>
		<path d="M322.783,189.217c-27.618,0-50.087,22.469-50.087,50.087c0,27.618,22.469,50.087,50.087,50.087
			s50.087-22.469,50.087-50.087C372.87,211.686,350.401,189.217,322.783,189.217z M322.783,256c-9.206,0-16.696-7.49-16.696-16.696
			c0-9.206,7.49-16.696,16.696-16.696c9.206,0,16.696,7.49,16.696,16.696C339.479,248.51,331.989,256,322.783,256z"/>
	</g>
</g>
<g>
	<g>
		<path d="M338.635,89.893c-6.519-6.52-17.091-6.52-23.611,0L173.357,231.56c-6.52,6.52-6.52,17.091,0,23.611
			c3.26,3.26,7.533,4.891,11.805,4.891c4.272,0,8.546-1.63,11.805-4.891l141.667-141.667
			C345.155,106.984,345.155,96.413,338.635,89.893z"/>
	</g>
</g>
<g>
</g>
<g>
</g>
<g>
</g>
<g>
</g>
<g>
</g>
<g>
</g>
<g>
</g>
<g>
</g>
<g>
</g>
<g>
</g>
<g>
</g>
<g>
</g>
<g>
</g>
<g>
</g>
<g>
</g>
</svg>
